<svg width="481" height="480" fill="none" xmlns="http://www.w3.org/2000/svg"><path d="M356.3 187.602c-.724-24.845 38.625-1.61 53.377 22.426 21.506 35.043-13.266 70.38-25.586 20.649-9.262-37.388-27.28-25.584-27.791-43.075zM115.487 116.54c-2.442 2.083-2.601 5.345-1.003 7.214 1.598 1.869 5.403 2.742 7.797 2.362 4.119-.655 6.324-5.101 4.311-9.427-2.32-4.987-8.663-2.231-11.105-.149zm99.532-51.78c-4.774 13.734 17.003 5.368 30.535 10.06s22.311 19.871 29.617 11.857c8.672-9.515-6.189-29.19-19.721-33.882-13.532-4.692-35.657-1.77-40.431 11.965z" fill="#FFDDBF"/><path d="M236.847 401.043c37.224 15.729 58.052-10.49 73.574-47.13 15.521-36.64 1.689-51.922-35.535-67.651-37.224-15.728-68.278-6.751-83.799 29.889-20.375 48.097 8.536 69.163 45.76 84.892z" fill="#B7EB6E"/><path fill-rule="evenodd" clip-rule="evenodd" d="M321.771 406.395c-10.906 14.155-35.941 30.211-52.11 39.377-9.853 5.586-5.071 19.186 6.479 13.721 19.184-9.076 46.301-27.201 58.048-44.82 4.999-7.499-6.442-16.033-12.417-8.278zM125.16 50.986c-12.059 2.375-32.288-.674-44.807-3.265-7.629-1.579-11.323 7.623-2.87 10.035 14.037 4.005 36.281 6.927 50.346 3.141 5.986-1.611 3.938-11.213-2.669-9.911z" fill="#B7EB6E"/><path d="M401.475 121.119c-4.101-1.403-7.925-.329-9.362 3.862-1.438 4.192 1.897 7.77 5.998 9.173 4.101 1.402 7.382.129 8.82-4.063 1.886-5.502-1.355-7.57-5.456-8.972z" fill="#B7EB6E"/><path d="M382.472 29.428c-.402-5.795-11.611-6.575-19.698-5.579-7.021.866-15.505 2.102-15.103 7.898.28 4.041-1.967 7.897 16.223 8.02 12.706.077 18.923-4.528 18.578-10.339zM58.638 112.719c.773 11.483-23.333 11.555-31.502 10.905l-.633-20.566c3.123-.718 6.802-1.102 11.035-1.076 23.658.166 20.735 5.327 21.1 10.737z" fill="#7BB5FB"/><path d="M226.748 266.333c3.797-.997 13.832-1.674 11.305-7.557-.348-.822-.977-1.338-1.954-1.338-10.705.488-21.661 2.685-32.729 4.176 5.918-2.69 9.086-4.286 13.734-5.582 3.546-.984 17.61-3.214 18.117-9.398m-8.473 19.699c-20.543 4.696-37.691 18.219-47.152 36.338m47.152-36.338a72.309 72.309 0 0133.841.422m-80.993 35.916c-5.026 9.628-7.882 20.554-7.924 32.144-.144 38.592 32.431 70.784 70.874 70.784 38.438 0 71.232-31.501 71.377-70.282.021-6.334-.883-12.409-2.187-18.569m-132.14-14.077c-12.993 25.173-27.548 66.684-55.798 78.887-19.766 8.539-39.784-6.024-45.325-24.762-5.86-19.818 6.773-37.199 20.414-50.153m100.086-201.509c8.723.447 18.996-5.157 24.62-11.43 4.746-5.297 8.175-12.352 7.244-21.621m-31.864 33.051c-10.351-8.158-24.341 1.715-21.829 13.02 1.337 5.995 6.875 10.891 13.092 11.145m8.737-24.165c-1.569-25.45 7.449-48.133 37.821-50.308m36.668 51.381c4.869-15.331.544-36.284-13.692-45.874-6.782-4.573-15.003-6.078-22.976-5.507m36.668 51.381c10.094-9.288 25.123.935 22.499 12.366-1.247 5.432-5.944 9.92-11.443 10.873m-11.056-23.239c1.987-11.33-8.749-15.713-17.683-17.885-9.519-2.314-23.61-2.97-24.942-16.239m5.957-17.257c-4.564 4.447-6.543 11.416-5.957 17.257m-40.601 57.216c1.435.059 3.21-.155 4.951-.67m-4.951.67c-.018 5.017-1.514 9.362-4.016 13.152M98.887 306.643c-43.305-16.533-46.404-80.798-14.543-109.202 27.229-24.304 81.901-24.728 101.876-54.99M98.887 306.643c26.976-25.618 52.006-55.389 76.384-83.568m258.842 103.473v5.228m0 6.272v5.228m8.375-8.364h-5.234m-6.281 0h-5.234m-20.945-228.705v6.969m0 8.364v6.97m11.166-11.152h-6.978m-8.375 0h-6.978m-109.111 12.088c-2.113.366-4.445.131-6.6-.618m6.6.618c-.018 4.802 1.322 9.007 3.607 12.71m96.465 159.776c32.882-23.75 35.1-76.478 5.332-103.403-26.927-24.357-82.768-25.528-101.797-56.373m96.465 159.776c-21.887-32.211-56.625-56.868-85.541-82.159m85.541 82.159c5.826 8.574 9.88 18.292 11.976 28.444M295.34 300.007c-6.136.253-12.28.645-18.404 1.114m-5.234-7.398c-2.473.28-5.772.385-6.426-2.702-.447-2.049 1.115-2.917 2.414-3.443 2.809-1.136 6.062-1.317 9.055-1.649 4.594-.509 9.237-.982 13.919-1.18 1.761-.075 2.798-.907 1.996-2.077-.6-.875-4.578-2.008-5.583-2.384-7.836-2.935-15.448-6.003-22.932-9.688-1.479-.728-3.232-2.198-3.556-3.845m11.113 26.968c-2.25.255-5.58 2.018-4.946 5.015.516 2.384 2.791 2.858 4.731 2.746 1.818-.094 3.635-.224 5.449-.363m-5.234-7.398c7.377-.835 14.9-1.481 22.465-1.977m-17.231 9.375c-2.721.203-7.756.513-7.146 4.295.326 1.971 1.686 2.591 3.234 2.786m-59.705-194.287c4.476-4.259 12.567-4.192 17.028.056m-2.327-1.683l2.092-2.653m-5.155 1.49l1.582-3.428m-4.971 3.057l.142-3.502m-6.474 5.218l-2.056-2.68m5.084 1.418l-1.51-3.328m27.022 6.147c4.475-4.26 12.566-4.193 17.027.055m-2.299-1.668l2.062-2.668m-5.124 1.497l1.565-3.435m-4.993 3.058l.164-3.503m-6.487 5.22l-2.041-2.682m5.081 1.416l-1.508-3.326m64.513 208.757c5.55 5.793 9.191 13.694 11.782 20.956 5.242 14.685 20.403 34.544 37.02 39.367m-48.802-60.323c-8.036-8.389-18.613-9.166-29.684-8.663m-86.865-179.456c.879 1.255 1.678 3.046 1.832 4.704.534 5.742-5.181 11.006-10.799 9.118m8.967-13.822c2.973-.879 5.846-2.637 6.745-5.415 22.358 33.355-.729 69.888-26.661 99.861m14.867-97.701c-5.164-.641-9.993 3.931-9.826 9.033.111 3.632 2.6 6.932 5.908 8.044m91.698-13.623c-2.982-1.037-5.626-3.059-6.885-5.838-3.378 11.347-12.324 20.742-12.785 32.953-1.038 27.639 21.764 47.178 40.801 63.83m-21.131-90.945c-1.213 1.729-2.07 3.818-1.976 5.956.257 5.875 6.744 10.417 12.183 7.372m-5.213-16.475c5.164-.599 9.951 4.001 9.756 9.103-.12 3.09-1.957 5.925-4.543 7.372m-112.854 80.919c8.402 7.736 18.95 13.911 29.627 17.982m0 0c5.849-4.365 11.725-8.695 17.37-13.324.907-.753 2.191-2.593 3.684-1.687 2.853 1.764 1.604 6.298.238 8.587-2.511 4.255-7.176 6.784-11.023 9.707m-10.269-3.283c-6.061 4.523-12.685 8.364-17.998 13.816-16.539 16.95-29.98 36.507-46.198 53.708-12.575 13.332-23.742 20.924-27.281 36.105-3.142 13.478.86 26.823 10.36 36.879 33.66 35.632 71.616 69.048 116.156 90.435 45.147-21.68 89.767-55.125 120.601-94.929M235.221 246.634c21.801-.725 46.298-10.789 63.828-26.861m-63.828 26.861c.124-1.517-.701-3.176-2.429-3.176-3.33.816-6.601 1.623-9.827 2.477m0 0a79.525 79.525 0 01-7.798-1.595m7.798 1.595c-7.415 1.964-14.6 4.18-21.758 7.337 4.8-2.655 9.588-5.609 13.96-8.932m39.76-147.918c-12.724-1.104-18.79 7.555-17.832 18.798.46 5.405 1.906 8.161.525 10.293-.824 1.255-2.82 1.464-4.16 1.102m-15.561 2.063c8.807 11.946 29.324 9.151 36.066-.641m142.601 202.339c59.831-89.077 58.586-192.844 56.038-296.598C397.641 63.453 277.061 70.057 239.937 8 202.76 70.146 75.497 63.72 27.276 33.778m369.29 296.598c4.415 21.377-10.068 54.23-36.028 46.695M27.273 33.778c-.467 18.997-.84 38.022-.77 56.974m32.59 193.833c-23.553-53.872-30.76-111.849-32.268-170.914m-.323-22.919c1.782.14 3.564.815 4.522 1.847 5.741 6.17 9.569-5.32 17.011 0 1.44 1.018 3.005 3.008 4.253 4.255 3.402 3.192 15.097-4.255 21.264 8.511 1.536 3.181 0 8.511-8.506 8.511-15.993.178-24.593-.387-38.221-.205m-.323-22.919c.028 7.654.128 15.296.323 22.919m255.227 194.414v0a7.585 7.585 0 01.012 10.717l-38.252 38.424c-3.912 3.929-10.272 3.927-14.18-.005l-16.516-16.618a6.909 6.909 0 01.015-9.756v0a6.908 6.908 0 019.748-.023l13.989 13.862 36.156-36.484m9.028-.117c-2.96.134-6.069.49-9.028.117m-12.435-41.447c-.491-2.498 2.029-3.731 4.128-3.529 1.536.167 3.015.683 4.467 1.269 5.546 2.259 11.157 4.33 16.776 6.398 4.704 1.731 10.044 2.732 14.753 4.976 14.027 6.607 22.248 20.408 31.557 32.019 8.751 10.915 19.051 20.505 27.872 31.364 10.099 12.434 9.451 26.13.396 37.819m-241.02-259.004a4.185 4.185 0 01-4.188 4.182 4.185 4.185 0 01-4.187-4.182 4.184 4.184 0 014.187-4.181 4.185 4.185 0 014.188 4.181zm265.664-85.59c6.354 0 7.501-3.982 6.354-6.358-4.607-9.537-13.343-3.974-15.885-6.358-.932-.932-2.1-2.418-3.177-3.179-5.559-3.973-8.418 4.61-12.707 0-2.065-2.225-8.26-2.224-9.531 3.18-1.12 4.803-7.118 3.546-10.378 6.357-1.484 1.28-2.421 2.982-.741 4.768 2.065 2.225 7.307 1.749 11.119 1.59 14.455-.477 20.65.158 34.946 0z" stroke="#071D2B" stroke-width="1.5" stroke-miterlimit="10" stroke-linecap="round" stroke-linejoin="round"/></svg>